<svg width="277" height="277" viewBox="0 0 277 277" fill="none" xmlns="http://www.w3.org/2000/svg">
<path d="M207.748 138.5C207.748 156.866 200.452 174.48 187.465 187.467C174.478 200.454 156.864 207.75 138.498 207.75C120.132 207.75 102.518 200.454 89.5309 187.467C76.544 174.48 69.248 156.866 69.248 138.5C69.248 120.134 76.544 102.52 89.5309 89.5329C102.518 76.546 120.132 69.25 138.498 69.25C156.864 69.25 174.478 76.546 187.465 89.5329C200.452 102.52 207.748 120.134 207.748 138.5Z" fill="#BE123C"/>
<path fill-rule="evenodd" clip-rule="evenodd" d="M138.499 14.4271C140.794 14.4271 142.996 15.3391 144.62 16.9624C146.243 18.5858 147.155 20.7876 147.155 23.0833V34.625C147.155 36.9208 146.243 39.1225 144.62 40.7459C142.996 42.3693 140.794 43.2813 138.499 43.2813C136.203 43.2813 134.001 42.3693 132.378 40.7459C130.754 39.1225 129.842 36.9208 129.842 34.625V23.0833C129.842 20.7876 130.754 18.5858 132.378 16.9624C134.001 15.3391 136.203 14.4271 138.499 14.4271ZM50.7705 50.7718C52.3935 49.1508 54.5937 48.2402 56.8876 48.2402C59.1815 48.2402 61.3816 49.1508 63.0047 50.7718L67.5405 55.2961C69.1181 56.928 69.9917 59.1142 69.973 61.3838C69.9544 63.6535 69.045 65.825 67.4408 67.4307C65.8367 69.0364 63.666 69.9478 61.3963 69.9686C59.1267 69.9894 56.9397 69.1179 55.3064 67.5418L50.7705 63.006C49.1495 61.3829 48.2389 59.1828 48.2389 56.8889C48.2389 54.595 49.1495 52.3948 50.7705 50.7718ZM226.227 50.7718C227.848 52.3948 228.758 54.595 228.758 56.8889C228.758 59.1828 227.848 61.3829 226.227 63.006L221.691 67.5418C220.05 69.0709 217.88 69.9033 215.637 69.8637C213.395 69.8242 211.255 68.9157 209.669 67.3297C208.083 65.7437 207.175 63.6041 207.135 61.3615C207.095 59.119 207.928 56.9486 209.457 55.3077L213.993 50.7718C215.616 49.1508 217.816 48.2402 220.11 48.2402C222.404 48.2402 224.604 49.1508 226.227 50.7718ZM14.4258 138.5C14.4258 136.204 15.3378 134.002 16.9611 132.379C18.5845 130.756 20.7863 129.844 23.082 129.844H34.6237C36.9195 129.844 39.1212 130.756 40.7446 132.379C42.368 134.002 43.2799 136.204 43.2799 138.5C43.2799 140.796 42.368 142.998 40.7446 144.621C39.1212 146.244 36.9195 147.156 34.6237 147.156H23.082C20.7863 147.156 18.5845 146.244 16.9611 144.621C15.3378 142.998 14.4258 140.796 14.4258 138.5ZM233.717 138.5C233.717 136.204 234.629 134.002 236.253 132.379C237.876 130.756 240.078 129.844 242.374 129.844H253.915C256.211 129.844 258.413 130.756 260.036 132.379C261.66 134.002 262.572 136.204 262.572 138.5C262.572 140.796 261.66 142.998 260.036 144.621C258.413 146.244 256.211 147.156 253.915 147.156H242.374C240.078 147.156 237.876 146.244 236.253 144.621C234.629 142.998 233.717 140.796 233.717 138.5ZM209.457 209.458C211.08 207.837 213.28 206.927 215.574 206.927C217.868 206.927 220.068 207.837 221.691 209.458L226.227 213.994C227.077 214.787 227.759 215.742 228.233 216.804C228.706 217.866 228.96 219.012 228.981 220.174C229.001 221.337 228.787 222.491 228.352 223.569C227.917 224.647 227.269 225.626 226.447 226.448C225.625 227.27 224.646 227.918 223.568 228.353C222.49 228.789 221.335 229.002 220.173 228.982C219.011 228.961 217.865 228.707 216.803 228.234C215.741 227.761 214.785 227.079 213.993 226.228L209.457 221.692C207.836 220.069 206.925 217.869 206.925 215.575C206.925 213.281 207.836 211.081 209.457 209.458ZM67.5405 209.458C69.1616 211.081 70.0721 213.281 70.0721 215.575C70.0721 217.869 69.1616 220.069 67.5405 221.692L63.0047 226.228C62.2122 227.079 61.2565 227.761 60.1947 228.234C59.1329 228.707 57.9866 228.961 56.8244 228.982C55.6621 229.002 54.5076 228.789 53.4297 228.353C52.3519 227.918 51.3727 227.27 50.5508 226.448C49.7288 225.626 49.0808 224.647 48.6454 223.569C48.21 222.491 47.9962 221.337 48.0167 220.174C48.0373 219.012 48.2916 217.866 48.7648 216.804C49.2379 215.742 49.92 214.787 50.7705 213.994L55.2948 209.458C56.0987 208.654 57.0532 208.016 58.1038 207.58C59.1544 207.145 60.2805 206.921 61.4177 206.921C62.5549 206.921 63.681 207.145 64.7316 207.58C65.7821 208.016 66.7367 208.654 67.5405 209.458ZM138.499 233.719C140.794 233.719 142.996 234.631 144.62 236.254C146.243 237.877 147.155 240.079 147.155 242.375V253.917C147.155 256.212 146.243 258.414 144.62 260.038C142.996 261.661 140.794 262.573 138.499 262.573C136.203 262.573 134.001 261.661 132.378 260.038C130.754 258.414 129.842 256.212 129.842 253.917V242.375C129.842 240.079 130.754 237.877 132.378 236.254C134.001 234.631 136.203 233.719 138.499 233.719Z" fill="#BE123C"/>
</svg>
